<svg width="234.91" height="101.037" viewBox="0 0 234.91 101.037" fill="none" xmlns="http://www.w3.org/2000/svg">
  <g transform="translate(-426.494,-385.604)">
    <path d="M480.945 414.025V423.361C479.565 421.475 478.002 419.82 476.162 418.302C473.955 416.508 471.379 415.083 468.482 414.071C465.539 413.059 462.365 412.507 458.824 412.507C452.616 412.507 447.097 414.117 442.268 417.29C437.393 420.463 433.576 424.832 430.725 430.351C427.874 435.87 426.494 442.216 426.494 449.436C426.494 456.657 427.874 463.003 430.679 468.568C433.484 474.132 437.256 478.547 441.992 481.766C446.775 484.986 452.11 486.641 458.042 486.641C461.354 486.641 464.527 486.135 467.47 485.078C470.413 484.02 473.127 482.64 475.472 480.893C477.45 479.421 479.197 477.765 480.669 475.972V485.308H499.938V414.025H480.945ZM472.713 467.51C470 469.211 466.872 470.085 463.285 470.085C459.698 470.085 456.709 469.211 454.041 467.51C451.374 465.808 449.305 463.417 447.787 460.29C446.269 457.208 445.487 453.575 445.487 449.436C445.487 445.297 446.269 441.848 447.787 438.767C449.305 435.732 451.42 433.294 454.041 431.547C456.709 429.799 459.79 428.925 463.285 428.925C466.78 428.925 470.046 429.799 472.713 431.547C475.38 433.294 477.496 435.686 478.967 438.767C480.439 441.802 481.175 445.389 481.175 449.436C481.175 453.483 480.439 457.208 478.967 460.29C477.496 463.371 475.38 465.808 472.713 467.51Z" fill="#232F3E"></path>
    <path d="M588.65 414.025H563.448L536.315 441.434V385.604H517.184V485.308H536.315V463.003L542.845 456.933L565.426 485.308H588.512L555.538 445.021L588.65 414.025Z" fill="#232F3E"></path>
    <path d="M642.411 414.025V423.361C641.031 421.475 639.467 419.82 637.628 418.302C635.42 416.508 632.845 415.083 629.948 414.071C627.004 413.059 623.831 412.507 620.29 412.507C614.082 412.507 608.563 414.117 603.734 417.29C598.859 420.463 595.042 424.832 592.191 430.351C589.34 435.87 587.96 442.216 587.96 449.436C587.96 456.657 589.34 463.003 592.145 468.568C594.95 474.132 598.721 478.547 603.458 481.766C608.241 484.986 613.576 486.641 619.508 486.641C622.819 486.641 625.993 486.135 628.936 485.078C631.879 484.02 634.593 482.64 636.938 480.893C638.916 479.421 640.663 477.765 642.135 475.972V485.308H661.404V414.025H642.411ZM634.179 467.51C631.465 469.211 628.338 470.085 624.751 470.085C621.164 470.085 618.175 469.211 615.507 467.51C612.84 465.808 610.77 463.417 609.253 460.29C607.735 457.208 606.953 453.575 606.953 449.436C606.953 445.297 607.735 441.848 609.253 438.767C610.77 435.732 612.886 433.294 615.507 431.547C618.175 429.799 621.256 428.925 624.751 428.925C628.246 428.925 631.511 429.799 634.179 431.547C636.846 433.294 638.962 435.686 640.433 438.767C641.905 441.802 642.641 445.389 642.641 449.436C642.641 453.483 641.905 457.208 640.433 460.29C638.962 463.371 636.846 465.808 634.179 467.51Z" fill="#232F3E"></path>
  </g>
</svg>